:SAMPLES-PER-SECOND 30
:FULLY-SPECIFIED
:DEGREES
1
root  61.4071 40.3776 0.107239 -132.665 -87.2612 130.849
RightUpLeg  -0.677732 -10.4977 -7.86617
RightLeg  9.03228 -4.92149 3.14567
RightFoot  -4.93188 -0.0529958 0.372386
RightToes  2.32829e-010 0 -3.6325e-017
Spine  10.9016 -0.135322 -0.400952
Spine1  -3.66543 0.134959 -1.39434
HEad  6.53355 -5.25955 -1.25253
LeftShoulder1  2.13916 -6.40327 -14.6984
LeftArm  -18.5459 21.3884 -7.60214
LeftForeArm  9.82807 -7.41565 -0.850543
LeftHand  -0.244104 0.0205437 5.32207
RightShoulder  0.783208 0.297232 13.6717
RightArm  -20.4904 -10.5933 6.56766
RightForeArm  -3.02694 7.8264 3.51996
RightHand  -1.67346 5.33681 -18.26
LeftUpLeg  -1.05052 5.9562 0.882645
LeftLeg  7.3308 15.2308 -1.57486
LeftFoot  -6.22462 0.113257 -1.69932
LeftToes  1.42787e-010 7.94111e-011 2.6399e-011
2
root  61.3605 40.3774 0.145337 -132.127 -87.2246 130.219
RightUpLeg  -0.482489 -10.5671 -8.01926
RightLeg  9.01961 -4.82152 3.12821
RightFoot  -4.98861 -0.0632797 0.532016
RightToes  2.32829e-010 0 -3.6325e-017
Spine  10.8275 -0.148373 -0.477658
Spine1  -3.32125 0.120467 -1.39343
HEad  8.34196 -4.29791 -1.86242
LeftShoulder1  2.18057 -6.31298 -15.3742
LeftArm  -19.0071 21.501 -7.46768
LeftForeArm  9.77218 -8.00529 -0.76206
LeftHand  -0.244104 0.0205437 5.32207
RightShoulder  0.832389 0.516439 13.7812
RightArm  -20.7867 -11.2949 7.26576
RightForeArm  -3.52979 7.86728 3.44912
RightHand  -1.77243 5.7747 -18.575
LeftUpLeg  -0.922821 5.98498 0.74255
LeftLeg  7.57329 15.654 -1.38419
LeftFoot  -6.91115 0.107734 -1.70874
LeftToes  1.42787e-010 7.94111e-011 2.6399e-011
3
root  61.2608 40.3732 0.213548 -130.487 -87.1805 128.437
RightUpLeg  -0.195756 -10.7044 -8.24711
RightLeg  9.12902 -4.72718 3.01592
RightFoot  -5.1899 -0.0669783 0.590216
RightToes  2.32829e-010 0 -3.6325e-017
Spine  10.7378 -0.100916 -0.635782
Spine1  -2.83359 0.174343 -1.46415
HEad  10.6888 -3.40209 -1.65415
LeftShoulder1  2.28499 -6.31117 -16.5325
LeftArm  -19.8113 21.7117 -7.40241
LeftForeArm  9.63976 -9.10525 -0.644928
LeftHand  -0.244104 0.0205437 5.32207
RightShoulder  0.920776 0.848679 14.2774
RightArm  -21.4139 -12.9723 8.69438
RightForeArm  -4.86607 7.97158 3.29094
RightHand  -1.88447 6.03098 -19.2908
LeftUpLeg  -0.713813 6.29441 0.560361
LeftLeg  8.1171 16.5681 -1.04579
LeftFoot  -8.08738 0.093265 -1.56868
LeftToes  1.42787e-010 7.94111e-011 2.6399e-011
4
root  61.135 40.3559 0.28967 -126.04 -87.2667 123.795
RightUpLeg  0.123738 -10.922 -8.48581
RightLeg  9.41351 -4.65543 2.8566
RightFoot  -5.57158 -0.0789548 0.818577
RightToes  2.32829e-010 0 -3.6325e-017
Spine  10.719 -0.0141828 -0.795489
Spine1  -2.32619 0.273046 -1.55697
HEad  13.4578 -2.84749 -1.31999
LeftShoulder1  2.43579 -6.44938 -17.8252
LeftArm  -20.8063 21.7095 -7.66313
LeftForeArm  9.62618 -10.1912 -0.529167
LeftHand  -0.244104 0.0205437 5.32207
RightShoulder  1.01622 1.0967 15.305
RightArm  -21.9654 -15.1073 10.3133
RightForeArm  -7.00729 7.99615 3.15018
RightHand  -1.88796 5.53663 -20.1615
LeftUpLeg  -0.433344 6.88415 0.507729
LeftLeg  8.73833 17.3436 -0.741647
LeftFoot  -9.16525 0.0831773 -1.489
LeftToes  1.42787e-010 7.94111e-011 2.6399e-011
5
root  61.0008 40.3236 0.371442 -114.507 -87.5259 111.934
RightUpLeg  0.548388 -11.3943 -8.77823
RightLeg  9.98309 -4.56471 2.63174
RightFoot  -6.10648 -0.109018 1.47994
RightToes  2.32829e-010 0 -3.6325e-017
Spine  10.7888 0.0118902 -1.01332
Spine1  -1.54366 0.281525 -1.49292
HEad  15.8739 -2.67615 -0.980868
LeftShoulder1  2.57638 -6.52297 -19.1446
LeftArm  -22.1488 21.1853 -8.66413
LeftForeArm  9.56105 -10.9393 -0.384246
LeftHand  -0.244104 0.0205437 5.32207
RightShoulder  1.12223 1.28167 16.7901
RightArm  -22.2118 -17.2631 11.8869
RightForeArm  -8.26998 7.86179 3.01855
RightHand  -1.81514 4.97291 -20.4117
LeftUpLeg  -0.0624492 7.44238 0.529989
LeftLeg  9.33021 17.3582 -0.4946
LeftFoot  -9.94886 0.0814754 -1.80181
LeftToes  1.42787e-010 7.94111e-011 2.6399e-011
6
root  60.8698 40.2619 0.458888 -95.4648 -87.6566 92.4655
RightUpLeg  0.822784 -12.5559 -9.10458
RightLeg  11.243 -4.08329 2.10902
RightFoot  -6.86659 -0.127839 2.06912
RightToes  2.32829e-010 0 -3.6325e-017
Spine  10.9712 0.0228674 -1.4945
Spine1  -0.401678 0.195221 -1.13884
HEad  17.7618 -2.80613 -0.791102
LeftShoulder1  2.7122 -6.5204 -20.6012
LeftArm  -23.6889 20.1291 -10.5288
LeftForeArm  8.83907 -11.2641 -0.231024
LeftHand  -0.244104 0.0205437 5.32207
RightShoulder  1.26602 1.53578 18.5989
RightArm  -22.3952 -19.4246 13.5802
RightForeArm  -7.0584 7.83059 2.81675
RightHand  -1.74282 5.07773 -19.4479
LeftUpLeg  0.299499 7.82618 0.491755
LeftLeg  9.97526 16.551 -0.302514
LeftFoot  -10.5474 0.0812898 -2.62367
LeftToes  1.42787e-010 7.94111e-011 2.6399e-011
7
root  60.764 40.1481 0.549174 -81.5053 -87.4104 78.1258
RightUpLeg  0.236284 -14.7962 -9.35839
RightLeg  13.8232 -2.37791 1.04682
RightFoot  -7.91837 -0.127763 2.50278
RightToes  2.32829e-010 0 -3.6325e-017
Spine  11.4157 0.163625 -2.2625
Spine1  0.796482 0.167727 -0.672009
HEad  19.1343 -3.18967 -0.600506
LeftShoulder1  2.98536 -6.79362 -22.6475
LeftArm  -24.8664 18.812 -12.5386
LeftForeArm  7.22365 -11.1958 -0.143438
LeftHand  -0.244104 0.0205437 5.32207
RightShoulder  1.49104 1.98665 20.7806
RightArm  -22.8898 -21.5064 15.531
RightForeArm  -4.66856 8.15569 2.57656
RightHand  -1.66886 5.50471 -17.9398
LeftUpLeg  0.466893 8.31366 0.385441
LeftLeg  10.8439 15.3078 -0.248328
LeftFoot  -11.0905 0.0747618 -3.82058
LeftToes  1.42787e-010 7.94111e-011 2.6399e-011
8
root  60.7116 39.9866 0.645836 -82.3555 -86.9958 78.6528
RightUpLeg  -1.79437 -16.3462 -9.57578
RightLeg  18.3085 -0.66075 -0.285573
RightFoot  -8.72204 -0.146558 3.83455
RightToes  2.32829e-010 0 -3.6325e-017
Spine  12.3561 0.405284 -3.11119
Spine1  1.90525 0.240682 -0.468045
HEad  19.593 -3.34773 -0.215232
LeftShoulder1  3.55593 -7.63931 -25.7029
LeftArm  -25.2484 17.4519 -13.7923
LeftForeArm  5.1744 -10.7161 -0.150834
LeftHand  -0.244104 0.0205437 5.32207
RightShoulder  1.84898 2.73058 23.4318
RightArm  -23.7091 -22.7633 17.6633
RightForeArm  -3.8923 8.44658 2.40993
RightHand  -1.5486 5.2575 -17.0649
LeftUpLeg  0.40891 9.19976 0.202004
LeftLeg  12.0292 14.073 -0.312988
LeftFoot  -11.5909 0.0586664 -4.97386
LeftToes  1.42787e-010 7.94111e-011 2.6399e-011
9
root  60.718 39.8081 0.753626 -91.6277 -86.4521 87.4747
RightUpLeg  -5.15979 -14.4783 -10.1662
RightLeg  25.003 -2.05358 -1.31046
RightFoot  -8.0201 -0.238792 6.18003
RightToes  2.32829e-010 0 -3.6325e-017
Spine  13.8922 0.548772 -3.99577
Spine1  3.26206 0.223802 -0.600008
HEad  18.794 -2.97892 0.186749
LeftShoulder1  4.42129 -8.91304 -29.5239
LeftArm  -24.8537 15.8661 -14.3406
LeftForeArm  3.34903 -9.67832 -0.269341
LeftHand  -0.244104 0.0205437 5.32207
RightShoulder  2.35351 3.75997 26.3157
RightArm  -24.5378 -22.2689 19.9919
RightForeArm  -4.83865 7.97196 2.31167
RightHand  -1.33934 4.01345 -16.6955
LeftUpLeg  0.299443 10.3514 -0.228195
LeftLeg  13.5189 13.1919 -0.232363
LeftFoot  -12.1353 0.0345891 -5.53013
LeftToes  1.42787e-010 7.94111e-011 2.6399e-011
10
root  60.7529 39.643 0.864554 -100.387 -85.7078 95.6183
RightUpLeg  -9.33173 -13.4535 -11.0254
RightLeg  32.9624 -3.41459 -2.63231
RightFoot  -5.06871 -0.449812 7.6294
RightToes  2.32829e-010 0 -3.6325e-017
Spine  15.8685 0.519548 -5.03974
Spine1  5.05682 -0.0313133 -0.759163
HEad  17.0098 -1.93566 0.258138
LeftShoulder1  5.43193 -10.2788 -33.366
LeftArm  -23.7466 13.5791 -14.9049
LeftForeArm  2.1971 -7.96776 -0.624119
LeftHand  -0.244104 0.0205437 5.32207
RightShoulder  2.93536 4.89718 28.9516
RightArm  -25.0231 -19.9686 22.5691
RightForeArm  -4.71863 6.72244 2.20884
RightHand  -1.02422 2.32962 -15.4952
LeftUpLeg  0.310405 11.3225 -0.99085
LeftLeg  14.9949 12.8176 0.132389
LeftFoot  -12.8361 0.00642001 -5.41448
LeftToes  1.42787e-010 7.94111e-011 2.6399e-011
11
root  60.7735 39.5303 0.970306 -105.992 -85.0411 100.766
RightUpLeg  -13.6334 -13.9521 -11.451
RightLeg  39.64 -4.21852 -3.99704
RightFoot  -1.24604 -0.609625 6.84593
RightToes  2.32829e-010 0 -3.6325e-017
Spine  18.0396 0.411488 -5.93559
Spine1  6.77745 -0.413807 -0.711621
HEad  14.9172 -0.72528 0.00811812
LeftShoulder1  6.50109 -11.6154 -36.8868
LeftArm  -21.8079 10.349 -15.6579
LeftForeArm  2.17702 -5.84132 -1.33881
LeftHand  -0.244104 0.0205437 5.32207
RightShoulder  3.511 5.95474 31.1703
RightArm  -24.8735 -16.8244 25.055
RightForeArm  -1.9697 5.63268 2.19099
RightHand  -0.72225 1.04908 -13.1327
LeftUpLeg  0.430674 11.771 -1.75752
LeftLeg  15.8304 12.8769 0.494221
LeftFoot  -13.4722 -0.0169372 -5.23802
LeftToes  1.42787e-010 7.94111e-011 2.6399e-011
12
root  60.7555 39.4962 1.06616 -110.347 -84.7194 105.191
RightUpLeg  -17.4724 -15.6116 -10.8667
RightLeg  42.6613 -4.14784 -4.37053
RightFoot  0.735147 -0.545165 5.16535
RightToes  2.32829e-010 0 -3.6325e-017
Spine  20.2622 0.276687 -6.24701
Spine1  7.76653 -0.75341 -0.59623
HEad  12.9672 0.263244 -0.328175
LeftShoulder1  7.64204 -12.9314 -40.2348
LeftArm  -19.454 6.44947 -16.3032
LeftForeArm  4.13508 -3.92677 -2.2982
LeftHand  -0.244104 0.0205437 5.32207
RightShoulder  4.08875 6.93297 33.2297
RightArm  -23.9332 -13.7301 26.861
RightForeArm  1.60806 5.50282 2.46127
RightHand  -0.58231 0.680028 -11.2553
LeftUpLeg  0.377945 11.7376 -2.15978
LeftLeg  15.9094 13.2262 0.586953
LeftFoot  -13.6931 -0.0290635 -5.41192
LeftToes  1.42787e-010 7.94111e-011 2.6399e-011
13
root  60.6854 39.5277 1.14675 -114.438 -84.7191 109.937
RightUpLeg  -20.36 -17.8662 -9.24662
RightLeg  41.0423 -3.536 -3.58988
RightFoot  0.372779 -0.498236 4.89051
RightToes  2.32829e-010 0 -3.6325e-017
Spine  22.3903 0.0452934 -6.04783
Spine1  8.08781 -1.07445 -0.574905
HEad  11.0116 1.2526 -0.638894
LeftShoulder1  8.76502 -14.1392 -43.2112
LeftArm  -17.5544 2.42688 -17.0665
LeftForeArm  8.28475 -2.87547 -3.15872
LeftHand  -0.244104 0.0205437 5.32207
RightShoulder  4.71309 7.93115 35.2486
RightArm  -22.3472 -10.6205 27.8769
RightForeArm  3.73107 6.10631 3.04735
RightHand  -0.581911 0.7451 -11.1063
LeftUpLeg  -0.0863561 11.4084 -2.22312
LeftLeg  15.6867 13.9015 0.526828
LeftFoot  -13.545 -0.0250704 -5.51632
LeftToes  1.42787e-010 7.94111e-011 2.6399e-011
